<svg width="450" height="37" viewBox="0 0 450 37" fill="none" xmlns="http://www.w3.org/2000/svg">
                                <path d="M0.457282 18.1372C0.204732 18.1372 -8.94913e-09 18.3419 -1.99884e-08 18.5945C-3.10277e-08 18.847 0.204732 19.0518 0.457282 19.0518L35.9743 19.0518L35.9743 18.1372L0.457282 18.1372Z" fill="#4a4a4a"></path>
                                <rect width="1.2848" height="3.65826" rx="0.642399" transform="matrix(1 0 0 -1 35.9741 20.4238)" fill="#4a4a4a"></rect>
                                <rect width="1.2848" height="6.85923" rx="0.642399" transform="matrix(1 0 0 -1 44.968 22.0239)" fill="#4a4a4a"></rect>
                                <rect width="1.2848" height="13.0325" rx="0.642399" transform="matrix(1 0 0 -1 53.9614 25.1104)" fill="#4a4a4a"></rect>
                                <rect width="1.2848" height="17.1481" rx="0.642399" transform="matrix(1 0 0 -1 62.9551 27.1685)" fill="#4a4a4a"></rect>
                                <rect width="1.2848" height="21.7209" rx="0.642399" transform="matrix(1 0 0 -1 71.9482 29.4546)" fill="#4a4a4a"></rect>
                                <rect width="1.2848" height="26.751" rx="0.642399" transform="matrix(1 0 0 -1 80.9421 31.9702)" fill="#4a4a4a"></rect>
                                <rect width="1.2848" height="31.3238" rx="0.642399" transform="matrix(1 0 0 -1 89.9358 34.2559)" fill="#4a4a4a"></rect>
                                <rect width="1.2848" height="31.3238" rx="0.642399" transform="matrix(1 0 0 -1 98.9292 34.2559)" fill="#4a4a4a"></rect>
                                <rect width="1.2848" height="27.8942" rx="0.642399" transform="matrix(1 0 0 -1 107.923 32.5415)" fill="#4a4a4a"></rect>
                                <rect width="1.2848" height="23.55" rx="0.642399" transform="matrix(1 0 0 -1 116.917 30.3691)" fill="#4a4a4a"></rect>
                                <rect width="1.2848" height="19.2059" rx="0.642399" transform="matrix(1 0 0 -1 125.91 28.1973)" fill="#4a4a4a"></rect>
                                <rect width="1.2848" height="13.2612" rx="0.642399" transform="matrix(1 0 0 -1 134.903 25.2251)" fill="#4a4a4a"></rect>
                                <rect width="1.2848" height="7.08787" rx="0.642399" transform="matrix(1 0 0 -1 143.897 22.1387)" fill="#4a4a4a"></rect>
                                <rect width="1.2848" height="13.9471" rx="0.642399" transform="matrix(1 0 0 -1 152.891 25.5679)" fill="#4a4a4a"></rect>
                                <rect width="1.2848" height="18.2913" rx="0.642399" transform="matrix(1 0 0 -1 161.885 27.7397)" fill="#4a4a4a"></rect>
                                <rect width="1.2848" height="22.4068" rx="0.642399" transform="matrix(1 0 0 -1 170.878 29.7979)" fill="#4a4a4a"></rect>
                                <rect width="1.2848" height="26.5224" rx="0.642399" transform="matrix(1 0 0 -1 179.871 31.856)" fill="#4a4a4a"></rect>
                                <rect width="1.2848" height="32.9243" rx="0.642399" transform="matrix(1 0 0 -1 188.865 35.0566)" fill="#4a4a4a"></rect>
                                <rect width="1.2848" height="27.8942" rx="0.642399" transform="matrix(1 0 0 -1 197.859 32.5415)" fill="#4a4a4a"></rect>
                                <rect width="1.2848" height="32.9243" rx="0.642399" transform="matrix(1 0 0 -1 206.852 35.0566)" fill="#4a4a4a"></rect>
                                <rect width="1.2848" height="36.8112" rx="0.642399" transform="matrix(1 0 0 -1 215.846 37)" fill="#4a4a4a"></rect>
                                <rect width="1.2848" height="36.5826" rx="0.642399" transform="matrix(1 0 0 -1 224.84 36.8853)" fill="#4a4a4a"></rect>
                                <rect width="1.2848" height="24.0073" rx="0.642399" transform="matrix(1 0 0 -1 233.833 30.5981)" fill="#4a4a4a"></rect>
                                <rect width="1.2848" height="31.7811" rx="0.642399" transform="matrix(1 0 0 -1 242.827 34.4854)" fill="#4a4a4a"></rect>
                                <rect width="1.2848" height="27.4369" rx="0.642399" transform="matrix(1 0 0 -1 251.82 32.3125)" fill="#4a4a4a"></rect>
                                <rect width="1.2848" height="22.8641" rx="0.642399" transform="matrix(1 0 0 -1 260.814 30.0264)" fill="#4a4a4a"></rect>
                                <rect width="1.2848" height="17.6054" rx="0.642399" transform="matrix(1 0 0 -1 269.808 27.397)" fill="#4a4a4a"></rect>
                                <rect width="1.2848" height="11.2034" rx="0.642399" transform="matrix(1 0 0 -1 278.801 24.1958)" fill="#4a4a4a"></rect>
                                <rect width="1.2848" height="17.6054" rx="0.642399" transform="matrix(1 0 0 -1 287.794 27.397)" fill="#4a4a4a"></rect>
                                <rect width="1.2848" height="27.4369" rx="0.642399" transform="matrix(1 0 0 -1 296.788 32.3125)" fill="#4a4a4a"></rect>
                                <rect width="1.2848" height="22.4068" rx="0.642399" transform="matrix(1 0 0 -1 305.782 29.7979)" fill="#4a4a4a"></rect>
                                <rect width="1.2848" height="16.9194" rx="0.642399" transform="matrix(1 0 0 -1 314.775 27.0537)" fill="#4a4a4a"></rect>
                                <rect width="1.2848" height="12.118" rx="0.642399" transform="matrix(1 0 0 -1 323.769 24.6533)" fill="#4a4a4a"></rect>
                                <rect width="1.2848" height="16.0049" rx="0.642399" transform="matrix(1 0 0 -1 332.762 26.5972)" fill="#4a4a4a"></rect>
                                <rect width="1.2848" height="20.1204" rx="0.642399" transform="matrix(1 0 0 -1 341.756 28.6543)" fill="#4a4a4a"></rect>
                                <rect width="1.2848" height="17.3767" rx="0.642399" transform="matrix(1 0 0 -1 350.75 27.2827)" fill="#4a4a4a"></rect>
                                <rect width="1.2848" height="20.5777" rx="0.642399" transform="matrix(1 0 0 -1 359.743 28.8833)" fill="#4a4a4a"></rect>
                                <rect width="1.2848" height="16.4622" rx="0.642399" transform="matrix(1 0 0 -1 368.737 26.8252)" fill="#4a4a4a"></rect>
                                <rect width="1.2848" height="13.2612" rx="0.642399" transform="matrix(1 0 0 -1 377.731 25.2251)" fill="#4a4a4a"></rect>
                                <rect width="1.2848" height="9.37428" rx="0.642399" transform="matrix(1 0 0 -1 386.724 23.2817)" fill="#4a4a4a"></rect>
                                <rect width="1.2848" height="9.37428" rx="0.642399" transform="matrix(1 0 0 -1 395.718 23.2817)" fill="#4a4a4a"></rect>
                                <path d="M397.002 18.1372L397.002 19.0518L449.543 19.0518C449.795 19.0518 450 18.847 450 18.5945C450 18.3419 449.795 18.1372 449.543 18.1372L397.002 18.1372Z" fill="#4a4a4a"></path>
                            </svg>